<svg width="196" height="42" viewBox="0 0 196 42" fill="none" xmlns="http://www.w3.org/2000/svg">
<g clip-path="url(#clip0_110_463)">
<path d="M35.6379 23.0673V29.0069C35.6379 29.0754 35.6366 29.1439 35.6325 29.2123C35.6312 29.2257 35.6312 29.2405 35.6299 29.2539C35.6272 29.2942 35.6245 29.3345 35.6205 29.3761C35.6164 29.4163 35.6124 29.4566 35.607 29.4969C35.603 29.5358 35.5963 29.5747 35.5909 29.6123C35.5815 29.67 35.5721 29.7264 35.5601 29.7841C35.5534 29.8204 35.5453 29.8553 35.5372 29.8915C35.5292 29.9224 35.5211 29.9546 35.5131 29.9868C35.5064 30.0163 35.4983 30.0445 35.4889 30.0741C35.4527 30.2043 35.4084 30.3331 35.3574 30.4593C35.3466 30.4861 35.3359 30.5143 35.3238 30.5412C35.293 30.615 35.2594 30.6875 35.2232 30.7586C35.2057 30.7949 35.1869 30.8298 35.1681 30.8647L35.1668 30.8633L28.4473 27.1237L17.9238 21.266L25.8379 17.623L35.4956 22.9895L35.6379 23.0673Z" fill="url(#paint0_linear_110_463)"/>
<path d="M35.5194 11.982L33.471 13.5605L31.6576 16.4115L14.416 6.81423L20.9677 2.21289L24.9274 4.50014H24.9288L32.1851 8.6894L33.6872 9.55651C34.612 10.0907 35.2643 10.9713 35.5194 11.982Z" fill="url(#paint1_linear_110_463)"/>
<path d="M24.9275 4.50101L0 18.7815V12.9373C0 11.5426 0.743624 10.254 1.95034 9.55738L15.8685 1.52248C17.0752 0.825839 18.5624 0.825839 19.7705 1.52248L24.9275 4.50101Z" fill="#21E786"/>
<path d="M35.6376 12.9364V14.9646L3.43758 33.2452L1.95034 32.3861C0.743624 31.6881 0 30.4009 0 29.0062V26.9821L32.1852 8.68945L33.6872 9.55657C34.894 10.2532 35.6376 11.5418 35.6376 12.9364Z" fill="#21E786"/>
<path d="M35.6374 22.9062V29.0069C35.6374 29.0754 35.636 29.1438 35.632 29.2123C35.6307 29.2257 35.6307 29.2405 35.6293 29.2539C35.6266 29.2942 35.624 29.3344 35.6199 29.376C35.6159 29.4163 35.6119 29.4566 35.6065 29.4969C35.6025 29.5358 35.5958 29.5747 35.5904 29.6123C35.581 29.67 35.5716 29.7264 35.5595 29.7841C35.5528 29.8203 35.5448 29.8552 35.5367 29.8915C35.5287 29.9224 35.5206 29.9546 35.5125 29.9868C35.5058 30.0163 35.4978 30.0445 35.4884 30.074C35.4521 30.2042 35.4079 30.3331 35.3568 30.4593C35.3461 30.4861 35.3354 30.5143 35.3233 30.5411C35.2924 30.615 35.2589 30.6875 35.2226 30.7586C35.2052 30.7948 35.1864 30.8297 35.1676 30.8646C35.1461 30.9036 35.1246 30.9425 35.1018 30.9801C35.0803 31.019 35.0562 31.0566 35.0334 31.0942C34.985 31.168 34.9354 31.2418 34.883 31.313C34.8293 31.3854 34.7743 31.4552 34.7179 31.5224C34.6884 31.5573 34.6589 31.5908 34.6293 31.623C34.5998 31.6566 34.5689 31.6888 34.538 31.721C34.4763 31.7854 34.4119 31.8485 34.3448 31.9076C34.3193 31.9318 34.2924 31.9546 34.2656 31.9774C34.2495 31.9908 34.2334 32.0042 34.2172 32.0177C34.185 32.0458 34.1515 32.0727 34.1166 32.0982C34.083 32.125 34.0495 32.1505 34.0132 32.1747C33.9461 32.2244 33.8763 32.2714 33.8052 32.3156C33.7662 32.3398 33.7273 32.364 33.687 32.3868L19.7703 40.4217C18.5622 41.1183 17.075 41.1183 15.8683 40.4217L10.7783 37.4834L28.4468 27.1237L35.4951 22.9895L35.6374 22.9062Z" fill="#21E786"/>
<path d="M6.99866 6.64258V35.3003L3.43758 33.2453L1.95034 32.3862C0.743624 31.6882 0 30.401 0 29.0063V12.9365C0 11.5419 0.743624 10.2533 1.95034 9.55667L6.99866 6.64258Z" fill="#21E786"/>
</g>
<path d="M67.04 11.456H72.16V31.712H67.072L61.312 23.136C60.864 22.4533 60.4907 21.8773 60.192 21.408C59.8933 20.9387 59.616 20.4693 59.36 20C59.104 19.5307 58.816 18.976 58.496 18.336L58.4 18.464C58.6987 19.488 58.88 20.448 58.944 21.344C59.008 22.2187 59.04 23.072 59.04 23.904V31.712H53.92V11.456H59.008L64.768 20.032C65.216 20.6933 65.5893 21.2693 65.888 21.76C66.1867 22.2293 66.464 22.6987 66.72 23.168C66.976 23.6373 67.264 24.192 67.584 24.832L67.68 24.704C67.4667 23.808 67.3067 22.944 67.2 22.112C67.0933 21.2587 67.04 20.416 67.04 19.584V11.456ZM81.1338 31.712H76.0138V11.456H91.0538V15.616H81.1338V20.256H90.4138V24.416H81.1338V31.712ZM97.6113 31.712V15.776H91.8513V11.456H108.491V15.776H102.731V31.712H97.6113ZM129.293 31.616V31.712H123.853C123.703 31.2 123.522 30.6133 123.309 29.952C123.117 29.2907 122.903 28.5867 122.669 27.84H115.757C115.33 29.3333 114.935 30.624 114.573 31.712H109.133V31.648L115.693 11.456H122.733L129.293 31.616ZM119.149 15.104C118.935 16.192 118.626 17.5147 118.22 19.072C117.815 20.6293 117.389 22.2187 116.941 23.84H121.517C121.047 22.2187 120.61 20.6293 120.205 19.072C119.799 17.5147 119.49 16.192 119.277 15.104H119.149ZM146.265 27.36V31.712H131.545V11.456H136.665V27.36H146.265ZM153.634 31.712H148.514V11.456H153.634V31.712ZM157.483 31.712V11.456H172.523V15.616H162.603V19.456H171.211V23.616H162.603V27.552H172.523V31.712H157.483ZM188.196 11.456H193.316V31.712H188.228L182.468 23.136C182.02 22.4533 181.647 21.8773 181.348 21.408C181.05 20.9387 180.772 20.4693 180.516 20C180.26 19.5307 179.972 18.976 179.652 18.336L179.556 18.464C179.855 19.488 180.036 20.448 180.1 21.344C180.164 22.2187 180.196 23.072 180.196 23.904V31.712H175.076V11.456H180.164L185.924 20.032C186.372 20.6933 186.746 21.2693 187.044 21.76C187.343 22.2293 187.62 22.6987 187.876 23.168C188.132 23.6373 188.42 24.192 188.74 24.832L188.836 24.704C188.623 23.808 188.463 22.944 188.356 22.112C188.25 21.2587 188.196 20.416 188.196 19.584V11.456Z" fill="white"/>
<defs>
<linearGradient id="paint0_linear_110_463" x1="34.5641" y1="27.4432" x2="20.2688" y2="17.6445" gradientUnits="userSpaceOnUse">
<stop stop-color="#00FFA3"/>
<stop offset="1" stop-color="#00FFA3" stop-opacity="0"/>
</linearGradient>
<linearGradient id="paint1_linear_110_463" x1="32.2147" y1="13.8854" x2="19.2617" y2="5.49611" gradientUnits="userSpaceOnUse">
<stop stop-color="#00FFA3"/>
<stop offset="1" stop-color="#00FFA3" stop-opacity="0"/>
</linearGradient>
<clipPath id="clip0_110_463">
<rect width="36" height="40" fill="white" transform="translate(0 1)"/>
</clipPath>
</defs>
</svg>
