<svg width="149" height="48" viewBox="0 0 149 48" fill="none" xmlns="http://www.w3.org/2000/svg">
<rect width="149" height="48" fill="#21E786"/>
<path d="M46.5 30V31.875C46.5 32.9093 45.6585 33.75 44.625 33.75H28.5C26.8455 33.75 25.5 32.4045 25.5 30.75C25.5 30.75 25.5 18.0113 25.5 18C25.5 16.3455 26.8455 15 28.5 15H42.375C42.9967 15 43.5 15.504 43.5 16.125C43.5 16.746 42.9967 17.25 42.375 17.25H28.5C28.0868 17.25 27.75 17.586 27.75 18C27.75 18.414 28.0868 18.75 28.5 18.75H44.625C45.6585 18.75 46.5 19.5907 46.5 20.625V22.5H42.75C40.6823 22.5 39 24.1823 39 26.25C39 28.3177 40.6823 30 42.75 30H46.5Z" fill="#141B22"/>
<path d="M46.5 24V28.5H42.75C41.5073 28.5 40.5 27.4927 40.5 26.25C40.5 25.0073 41.5073 24 42.75 24H46.5Z" fill="#141B22"/>
<path d="M64.512 27.664V29.68C64 29.7867 63.4987 29.8667 63.008 29.92C62.5173 29.9733 61.936 30 61.264 30C60.4 30 59.6693 29.9253 59.072 29.776C58.4853 29.6267 58.0107 29.3653 57.648 28.992C57.296 28.608 57.04 28.0693 56.88 27.376C56.72 26.6827 56.64 25.792 56.64 24.704C56.64 23.6587 56.72 22.8 56.88 22.128C57.04 21.456 57.296 20.9387 57.648 20.576C58.0107 20.2027 58.4853 19.9467 59.072 19.808C59.6693 19.6587 60.4 19.584 61.264 19.584C61.936 19.584 62.5173 19.6107 63.008 19.664C63.4987 19.7067 64 19.7867 64.512 19.904V21.984L64.464 22.016C64.016 21.9093 63.584 21.8347 63.168 21.792C62.752 21.7387 62.24 21.712 61.632 21.712C61.1413 21.712 60.736 21.7493 60.416 21.824C60.1067 21.888 59.8613 22.0213 59.68 22.224C59.4987 22.4267 59.3707 22.7253 59.296 23.12C59.232 23.5147 59.2 24.0427 59.2 24.704C59.2 25.3973 59.232 25.9573 59.296 26.384C59.3707 26.8 59.4987 27.1147 59.68 27.328C59.8613 27.5413 60.1067 27.6853 60.416 27.76C60.736 27.8347 61.1413 27.872 61.632 27.872C62.2293 27.872 62.736 27.856 63.152 27.824C63.5787 27.7813 64.0053 27.7067 64.432 27.6L64.512 27.664ZM65.5463 24.784C65.5463 23.4933 65.6903 22.4693 65.9783 21.712C66.2769 20.9547 66.7836 20.4107 67.4983 20.08C68.2236 19.7493 69.2316 19.584 70.5223 19.584C71.4929 19.584 72.2983 19.6747 72.9383 19.856C73.5783 20.0373 74.0849 20.3307 74.4583 20.736C74.8316 21.1413 75.0929 21.68 75.2423 22.352C75.4023 23.0133 75.4823 23.824 75.4823 24.784C75.4823 25.7547 75.4023 26.576 75.2423 27.248C75.0929 27.9093 74.8316 28.4427 74.4583 28.848C74.0849 29.2533 73.5783 29.5467 72.9383 29.728C72.2983 29.9093 71.4929 30 70.5223 30C69.5516 30 68.7463 29.9093 68.1063 29.728C67.4663 29.5467 66.9596 29.2533 66.5863 28.848C66.2129 28.4427 65.9463 27.9093 65.7863 27.248C65.6263 26.576 65.5463 25.7547 65.5463 24.784ZM70.5223 27.76C71.2049 27.76 71.7169 27.6747 72.0583 27.504C72.3996 27.3333 72.6289 27.0347 72.7463 26.608C72.8636 26.1707 72.9223 25.5627 72.9223 24.784C72.9223 24.016 72.8636 23.4187 72.7463 22.992C72.6289 22.5653 72.3996 22.2667 72.0583 22.096C71.7169 21.9147 71.2049 21.824 70.5223 21.824C69.8503 21.824 69.3383 21.9147 68.9863 22.096C68.6449 22.2667 68.4103 22.5653 68.2823 22.992C68.1649 23.4187 68.1063 24.016 68.1063 24.784C68.1063 25.5627 68.1649 26.1707 68.2823 26.608C68.4103 27.0347 68.6449 27.3333 68.9863 27.504C69.3383 27.6747 69.8503 27.76 70.5223 27.76ZM83.645 19.728H86.205V29.856H83.661L80.781 25.568C80.557 25.2267 80.3703 24.9387 80.221 24.704C80.0717 24.4693 79.933 24.2347 79.805 24C79.677 23.7653 79.533 23.488 79.373 23.168L79.325 23.232C79.4743 23.744 79.565 24.224 79.597 24.672C79.629 25.1093 79.645 25.536 79.645 25.952V29.856H77.085V19.728H79.629L82.509 24.016C82.733 24.3467 82.9197 24.6347 83.069 24.88C83.2183 25.1147 83.357 25.3493 83.485 25.584C83.613 25.8187 83.757 26.096 83.917 26.416L83.965 26.352C83.8583 25.904 83.7783 25.472 83.725 25.056C83.6717 24.6293 83.645 24.208 83.645 23.792V19.728ZM94.6919 19.728H97.2519V29.856H94.7079L91.8279 25.568C91.6039 25.2267 91.4172 24.9387 91.2679 24.704C91.1185 24.4693 90.9799 24.2347 90.8519 24C90.7239 23.7653 90.5799 23.488 90.4199 23.168L90.3719 23.232C90.5212 23.744 90.6119 24.224 90.6439 24.672C90.6759 25.1093 90.6919 25.536 90.6919 25.952V29.856H88.1319V19.728H90.6759L93.5559 24.016C93.7799 24.3467 93.9665 24.6347 94.1159 24.88C94.2652 25.1147 94.4039 25.3493 94.5319 25.584C94.6599 25.8187 94.8039 26.096 94.9639 26.416L95.0119 26.352C94.9052 25.904 94.8252 25.472 94.7719 25.056C94.7185 24.6293 94.6919 24.208 94.6919 23.792V19.728ZM99.1788 29.856V19.728H106.699V21.808H101.739V23.728H106.043V25.808H101.739V27.776H106.699V29.856H99.1788ZM115.528 27.664V29.68C115.016 29.7867 114.514 29.8667 114.024 29.92C113.533 29.9733 112.952 30 112.28 30C111.416 30 110.685 29.9253 110.088 29.776C109.501 29.6267 109.026 29.3653 108.664 28.992C108.312 28.608 108.056 28.0693 107.896 27.376C107.736 26.6827 107.656 25.792 107.656 24.704C107.656 23.6587 107.736 22.8 107.896 22.128C108.056 21.456 108.312 20.9387 108.664 20.576C109.026 20.2027 109.501 19.9467 110.088 19.808C110.685 19.6587 111.416 19.584 112.28 19.584C112.952 19.584 113.533 19.6107 114.024 19.664C114.514 19.7067 115.016 19.7867 115.528 19.904V21.984L115.48 22.016C115.032 21.9093 114.6 21.8347 114.184 21.792C113.768 21.7387 113.256 21.712 112.648 21.712C112.157 21.712 111.752 21.7493 111.432 21.824C111.122 21.888 110.877 22.0213 110.696 22.224C110.514 22.4267 110.386 22.7253 110.312 23.12C110.248 23.5147 110.216 24.0427 110.216 24.704C110.216 25.3973 110.248 25.9573 110.312 26.384C110.386 26.8 110.514 27.1147 110.696 27.328C110.877 27.5413 111.122 27.6853 111.432 27.76C111.752 27.8347 112.157 27.872 112.648 27.872C113.245 27.872 113.752 27.856 114.168 27.824C114.594 27.7813 115.021 27.7067 115.448 27.6L115.528 27.664ZM118.962 29.856V21.888H116.082V19.728H124.402V21.888H121.522V29.856H118.962Z" fill="#141B22"/>
</svg>
