<svg width="147" height="48" viewBox="0 0 147 48" fill="none" xmlns="http://www.w3.org/2000/svg">
<rect width="147" height="48" fill="#141B22"/>
<path d="M44.317 16.1551C42.7873 15.4532 41.147 14.9361 39.4319 14.6399C39.4007 14.6342 39.3695 14.6485 39.3534 14.6771C39.1424 15.0523 38.9087 15.5418 38.7451 15.9265C36.9004 15.6503 35.0652 15.6503 33.2583 15.9265C33.0946 15.5332 32.8525 15.0523 32.6406 14.6771C32.6245 14.6494 32.5933 14.6352 32.562 14.6399C30.8479 14.9351 29.2076 15.4523 27.6769 16.1551C27.6637 16.1608 27.6523 16.1703 27.6448 16.1827C24.5334 20.8311 23.681 25.3652 24.0992 29.8431C24.1011 29.865 24.1134 29.8859 24.1304 29.8992C26.1832 31.4068 28.1717 32.322 30.1233 32.9286C30.1545 32.9382 30.1876 32.9267 30.2075 32.901C30.6691 32.2706 31.0806 31.6058 31.4335 30.9068C31.4543 30.8659 31.4344 30.8173 31.3919 30.8011C30.7391 30.5535 30.1176 30.2516 29.5197 29.9088C29.4724 29.8812 29.4687 29.8135 29.5122 29.7811C29.638 29.6869 29.7638 29.5888 29.884 29.4897C29.9057 29.4716 29.936 29.4678 29.9615 29.4792C33.8893 31.2725 38.1415 31.2725 42.023 29.4792C42.0485 29.4669 42.0788 29.4707 42.1015 29.4888C42.2216 29.5878 42.3475 29.6869 42.4742 29.7811C42.5177 29.8135 42.5149 29.8812 42.4676 29.9088C41.8697 30.2583 41.2482 30.5535 40.5945 30.8002C40.552 30.8163 40.533 30.8659 40.5538 30.9068C40.9143 31.6049 41.3258 32.2696 41.7789 32.9001C41.7978 32.9267 41.8319 32.9382 41.8631 32.9286C43.8241 32.322 45.8126 31.4068 47.8654 29.8992C47.8834 29.8859 47.8948 29.8659 47.8967 29.844C48.3971 24.6671 47.0585 20.1701 44.3482 16.1836C44.3416 16.1703 44.3303 16.1608 44.317 16.1551ZM32.02 27.1165C30.8375 27.1165 29.8631 26.0308 29.8631 24.6976C29.8631 23.3643 30.8186 22.2786 32.02 22.2786C33.2309 22.2786 34.1958 23.3738 34.1769 24.6976C34.1769 26.0308 33.2214 27.1165 32.02 27.1165ZM39.9947 27.1165C38.8123 27.1165 37.8379 26.0308 37.8379 24.6976C37.8379 23.3643 38.7933 22.2786 39.9947 22.2786C41.2056 22.2786 42.1705 23.3738 42.1516 24.6976C42.1516 26.0308 41.2056 27.1165 39.9947 27.1165Z" fill="white"/>
<path d="M56.96 29.856V19.728H61.392C62.2773 19.728 63.0187 19.8027 63.616 19.952C64.2133 20.0907 64.6933 20.3413 65.056 20.704C65.4187 21.0667 65.68 21.5733 65.84 22.224C66 22.864 66.08 23.6907 66.08 24.704C66.08 25.76 66 26.624 65.84 27.296C65.68 27.968 65.4187 28.4907 65.056 28.864C64.6933 29.2373 64.2133 29.4987 63.616 29.648C63.0187 29.7867 62.2773 29.856 61.392 29.856H56.96ZM61.024 21.888H59.52V27.696H61.024C61.6427 27.696 62.128 27.6267 62.48 27.488C62.8427 27.3493 63.0987 27.0667 63.248 26.64C63.408 26.2133 63.488 25.568 63.488 24.704C63.488 23.8827 63.408 23.2747 63.248 22.88C63.0987 22.4747 62.8427 22.208 62.48 22.08C62.128 21.952 61.6427 21.888 61.024 21.888ZM70.2388 29.856H67.6788V19.728H70.2388V29.856ZM71.9071 27.248C72.3765 27.408 72.8885 27.536 73.4431 27.632C74.0085 27.7173 74.5685 27.76 75.1231 27.76C75.8805 27.76 76.4405 27.728 76.8031 27.664C77.1765 27.5893 77.4218 27.4773 77.5391 27.328C77.6565 27.1787 77.7151 26.9867 77.7151 26.752C77.7151 26.5493 77.6725 26.3893 77.5871 26.272C77.5018 26.1547 77.3365 26.064 77.0911 26C76.8458 25.9253 76.4831 25.8667 76.0031 25.824L74.9471 25.728C74.1578 25.6533 73.5338 25.488 73.0751 25.232C72.6271 24.976 72.3071 24.6347 72.1151 24.208C71.9338 23.7707 71.8431 23.248 71.8431 22.64C71.8431 21.9147 71.9871 21.328 72.2751 20.88C72.5738 20.432 73.0538 20.1067 73.7151 19.904C74.3765 19.6907 75.2565 19.584 76.3551 19.584C77.7845 19.584 78.9631 19.7707 79.8911 20.144L79.8431 22.32L79.7951 22.384C78.7391 22.0107 77.6351 21.824 76.4831 21.824C75.9285 21.824 75.5018 21.856 75.2031 21.92C74.9045 21.9733 74.6965 22.064 74.5791 22.192C74.4618 22.32 74.4031 22.5013 74.4031 22.736C74.4031 22.9707 74.4405 23.1467 74.5151 23.264C74.6005 23.3813 74.7658 23.472 75.0111 23.536C75.2565 23.5893 75.6138 23.6427 76.0831 23.696L77.0911 23.808C77.9445 23.904 78.6005 24.0747 79.0591 24.32C79.5178 24.5653 79.8325 24.896 80.0031 25.312C80.1845 25.7173 80.2751 26.2133 80.2751 26.8C80.2751 27.5147 80.1205 28.112 79.8111 28.592C79.5125 29.0613 79.0218 29.4133 78.3391 29.648C77.6565 29.8827 76.7445 30 75.6031 30C74.8565 30 74.1845 29.9627 73.5871 29.888C72.9898 29.8027 72.4085 29.6907 71.8431 29.552V27.296L71.9071 27.248ZM89.4339 27.664V29.68C88.9219 29.7867 88.4205 29.8667 87.9299 29.92C87.4392 29.9733 86.8579 30 86.1859 30C85.3219 30 84.5912 29.9253 83.9939 29.776C83.4072 29.6267 82.9325 29.3653 82.5699 28.992C82.2179 28.608 81.9619 28.0693 81.8019 27.376C81.6419 26.6827 81.5619 25.792 81.5619 24.704C81.5619 23.6587 81.6419 22.8 81.8019 22.128C81.9619 21.456 82.2179 20.9387 82.5699 20.576C82.9325 20.2027 83.4072 19.9467 83.9939 19.808C84.5912 19.6587 85.3219 19.584 86.1859 19.584C86.8579 19.584 87.4392 19.6107 87.9299 19.664C88.4205 19.7067 88.9219 19.7867 89.4339 19.904V21.984L89.3859 22.016C88.9379 21.9093 88.5059 21.8347 88.0899 21.792C87.6739 21.7387 87.1619 21.712 86.5539 21.712C86.0632 21.712 85.6579 21.7493 85.3379 21.824C85.0285 21.888 84.7832 22.0213 84.6019 22.224C84.4205 22.4267 84.2925 22.7253 84.2179 23.12C84.1539 23.5147 84.1219 24.0427 84.1219 24.704C84.1219 25.3973 84.1539 25.9573 84.2179 26.384C84.2925 26.8 84.4205 27.1147 84.6019 27.328C84.7832 27.5413 85.0285 27.6853 85.3379 27.76C85.6579 27.8347 86.0632 27.872 86.5539 27.872C87.1512 27.872 87.6579 27.856 88.0739 27.824C88.5005 27.7813 88.9272 27.7067 89.3539 27.6L89.4339 27.664ZM90.4681 24.784C90.4681 23.4933 90.6121 22.4693 90.9001 21.712C91.1988 20.9547 91.7055 20.4107 92.4201 20.08C93.1455 19.7493 94.1535 19.584 95.4441 19.584C96.4148 19.584 97.2201 19.6747 97.8601 19.856C98.5001 20.0373 99.0068 20.3307 99.3801 20.736C99.7535 21.1413 100.015 21.68 100.164 22.352C100.324 23.0133 100.404 23.824 100.404 24.784C100.404 25.7547 100.324 26.576 100.164 27.248C100.015 27.9093 99.7535 28.4427 99.3801 28.848C99.0068 29.2533 98.5001 29.5467 97.8601 29.728C97.2201 29.9093 96.4148 30 95.4441 30C94.4735 30 93.6681 29.9093 93.0281 29.728C92.3881 29.5467 91.8815 29.2533 91.5081 28.848C91.1348 28.4427 90.8681 27.9093 90.7081 27.248C90.5481 26.576 90.4681 25.7547 90.4681 24.784ZM95.4441 27.76C96.1268 27.76 96.6388 27.6747 96.9801 27.504C97.3215 27.3333 97.5508 27.0347 97.6681 26.608C97.7855 26.1707 97.8441 25.5627 97.8441 24.784C97.8441 24.016 97.7855 23.4187 97.6681 22.992C97.5508 22.5653 97.3215 22.2667 96.9801 22.096C96.6388 21.9147 96.1268 21.824 95.4441 21.824C94.7721 21.824 94.2601 21.9147 93.9081 22.096C93.5668 22.2667 93.3321 22.5653 93.2041 22.992C93.0868 23.4187 93.0281 24.016 93.0281 24.784C93.0281 25.5627 93.0868 26.1707 93.2041 26.608C93.3321 27.0347 93.5668 27.3333 93.9081 27.504C94.2601 27.6747 94.7721 27.76 95.4441 27.76ZM104.567 29.856H102.007V19.728H106.839C108.108 19.728 109.031 20.016 109.607 20.592C110.194 21.1573 110.487 21.9947 110.487 23.104C110.487 23.936 110.279 24.6507 109.863 25.248C109.447 25.8347 108.898 26.2027 108.215 26.352L108.199 26.4C108.466 26.5707 108.759 26.8533 109.079 27.248C109.399 27.6427 109.714 28.0747 110.023 28.544C110.343 29.0027 110.626 29.4347 110.871 29.84V29.856H107.895L106.167 27.296C106.018 27.072 105.895 26.912 105.799 26.816C105.714 26.72 105.607 26.6613 105.479 26.64C105.362 26.6187 105.17 26.608 104.903 26.608H104.567V29.856ZM106.423 21.808H104.567V24.528H106.423C106.956 24.528 107.324 24.4213 107.527 24.208C107.74 23.9947 107.847 23.648 107.847 23.168C107.847 22.688 107.74 22.3413 107.527 22.128C107.324 21.9147 106.956 21.808 106.423 21.808ZM112.319 29.856V19.728H116.751C117.637 19.728 118.378 19.8027 118.975 19.952C119.573 20.0907 120.053 20.3413 120.415 20.704C120.778 21.0667 121.039 21.5733 121.199 22.224C121.359 22.864 121.439 23.6907 121.439 24.704C121.439 25.76 121.359 26.624 121.199 27.296C121.039 27.968 120.778 28.4907 120.415 28.864C120.053 29.2373 119.573 29.4987 118.975 29.648C118.378 29.7867 117.637 29.856 116.751 29.856H112.319ZM116.383 21.888H114.879V27.696H116.383C117.002 27.696 117.487 27.6267 117.839 27.488C118.202 27.3493 118.458 27.0667 118.607 26.64C118.767 26.2133 118.847 25.568 118.847 24.704C118.847 23.8827 118.767 23.2747 118.607 22.88C118.458 22.4747 118.202 22.208 117.839 22.08C117.487 21.952 117.002 21.888 116.383 21.888Z" fill="white"/>
</svg>
